<svg width="50" height="50" viewBox="0 0 50 50" fill="none" xmlns="http://www.w3.org/2000/svg">
<g id="book-open">
<circle id="Ellipse 4" cx="25" cy="25" r="25" fill="white"/>
<path id="Vector" d="M25 22.2498V34.9998M25 22.2498C25 20.1196 25.1342 17.7705 22.9523 16.6587C22.1501 16.25 21.0998 16.25 18.9996 16.25H15.7496C14.205 16.25 13.75 16.7957 13.75 18.2501V29.2501C13.75 29.9597 13.7053 30.7434 14.4324 31.1139C14.6995 31.25 15.0488 31.25 15.7475 31.25H19.2885C22.2598 31.25 23.3634 32.5454 25 34.9998M25 22.2498C25 20.1201 24.8655 17.7704 27.0472 16.6587C27.8493 16.25 28.8996 16.25 30.9998 16.25H34.2498C35.794 16.25 36.25 16.7955 36.25 18.2501V29.2501C36.25 29.9588 36.2943 30.7438 35.5679 31.1139C35.3008 31.25 34.9513 31.25 34.2526 31.25H30.7117C27.7398 31.25 26.6368 32.5445 25 34.9998" stroke="#213A8B" stroke-width="2" stroke-linecap="round" stroke-linejoin="round"/>
</g>
</svg>
