<svg width="30" height="30" viewBox="0 0 30 30" fill="none" xmlns="http://www.w3.org/2000/svg">
<g id="book-open">
<path id="Vector" d="M15 12.2498V24.9998M15 12.2498C15 10.1196 15.1342 7.77049 12.9523 6.65873C12.1501 6.25 11.0998 6.25 8.99956 6.25H5.74956C4.20497 6.25 3.75005 6.79575 3.75005 8.25012V19.2501C3.75005 19.9597 3.70533 20.7434 4.43242 21.1139C4.69955 21.25 5.04881 21.25 5.74751 21.25H9.28846C12.2598 21.25 13.3634 22.5454 15 24.9998M15 12.2498C15 10.1201 14.8655 7.77036 17.0472 6.65873C17.8493 6.25 18.8996 6.25 20.9998 6.25H24.2498C25.794 6.25 26.25 6.79554 26.25 8.25012V19.2501C26.25 19.9588 26.2943 20.7438 25.5679 21.1139C25.3008 21.25 24.9513 21.25 24.2526 21.25H20.7117C17.7398 21.25 16.6368 22.5445 15 24.9998" stroke="white" stroke-width="2" stroke-linecap="round" stroke-linejoin="round"/>
</g>
</svg>
