<svg width="28" height="28" viewBox="0 0 28 28" fill="none" xmlns="http://www.w3.org/2000/svg">
<g id="git-diff">
<path id="Vector" d="M21 24.5C22.933 24.5 24.5 22.933 24.5 21C24.5 19.067 22.933 17.5 21 17.5C19.067 17.5 17.5 19.067 17.5 21C17.5 22.933 19.067 24.5 21 24.5Z" stroke="#213A8B" stroke-width="2" stroke-linecap="round" stroke-linejoin="round"/>
<path id="Vector_2" d="M21 17.5L21 8.74996C21 7.46129 19.9553 6.41663 18.6667 6.41663H15.75" stroke="#213A8B" stroke-width="2" stroke-linecap="round" stroke-linejoin="round"/>
<path id="Vector_3" d="M16.9167 9.33333L14 6.41667L16.9167 3.5" stroke="#213A8B" stroke-width="2" stroke-linecap="round" stroke-linejoin="round"/>
<path id="Vector_4" d="M7 3.5C5.067 3.5 3.5 5.067 3.5 7C3.5 8.933 5.067 10.5 7 10.5C8.933 10.5 10.5 8.933 10.5 7C10.5 5.067 8.933 3.5 7 3.5Z" stroke="#213A8B" stroke-width="2" stroke-linecap="round" stroke-linejoin="round"/>
<path id="Vector_5" d="M7 10.5L7 19.25C7 20.5387 8.04467 21.5833 9.33333 21.5833H12.25" stroke="#213A8B" stroke-width="2" stroke-linecap="round" stroke-linejoin="round"/>
<path id="Vector_6" d="M11.0835 18.6666L14.0002 21.5833L11.0835 24.5" stroke="#213A8B" stroke-width="2" stroke-linecap="round" stroke-linejoin="round"/>
</g>
</svg>
