<svg width="50" height="50" viewBox="0 0 50 50" fill="none" xmlns="http://www.w3.org/2000/svg">
<circle cx="25" cy="25" r="25" fill="white"/>
<path d="M17.6667 36.25C16.1939 36.25 15 35.0244 15 33.5126V22.5098C15 21.6782 15.3682 20.8917 16.0008 20.3722L23.3341 14.3499C24.3081 13.55 25.6919 13.55 26.6659 14.3499L33.9992 20.3722C34.6318 20.8917 35 21.6782 35 22.5098V33.5126C35 35.0244 33.8061 36.25 32.3333 36.25H17.6667Z" stroke="#213A8B" stroke-width="2" stroke-linecap="round" stroke-linejoin="round"/>
<path d="M21.875 36.25V29.375C21.875 27.9943 22.9943 26.875 24.375 26.875H25.625C27.0057 26.875 28.125 27.9943 28.125 29.375V36.25" stroke="#213A8B" stroke-width="2" stroke-linecap="round" stroke-linejoin="round"/>
</svg>
