<svg width="50" height="50" viewBox="0 0 50 50" fill="none" xmlns="http://www.w3.org/2000/svg">
<g id="message-dots">
<circle id="Ellipse 5" cx="25" cy="25" r="25" fill="white"/>
<path id="Vector" d="M25 23.75V23.125" stroke="#213A8B" stroke-width="2" stroke-linecap="round" stroke-linejoin="round"/>
<path id="Vector_2" d="M30 23.75V23.125" stroke="#213A8B" stroke-width="2" stroke-linecap="round" stroke-linejoin="round"/>
<path id="Vector_3" d="M20 23.75V23.125" stroke="#213A8B" stroke-width="2" stroke-linecap="round" stroke-linejoin="round"/>
<path id="Vector_4" d="M14.3306 31.0355C12.5 29.5711 12.5 28.464 12.5 23.75C12.5 19.036 12.5 16.6789 14.3306 15.2145C16.1612 13.75 19.1074 13.75 25 13.75C30.8926 13.75 33.8388 13.75 35.6694 15.2145C37.5 16.6789 37.5 19.036 37.5 23.75C37.5 28.464 37.5 29.5711 35.6694 31.0355C33.8388 32.5 30.8926 32.5 25 32.5C21.8631 32.5 20.2497 34.6719 17.5 36.25V32.2353C16.1326 32.0319 15.1262 31.672 14.3306 31.0355Z" stroke="#213A8B" stroke-width="2" stroke-linecap="round" stroke-linejoin="round"/>
</g>
</svg>
